<svg xmlns="http://www.w3.org/2000/svg" width="560" height="360"><g class="pageagents-map-g" transform="translate(280,121.96363636363637) scale(0.6045454545454545)"><g><path fill="none" stroke="var(--t2)" stroke-opacity="0.5" stroke-width="1.6" stroke-linecap="round" d="M0,15C0,46 -300,46 -300,77"></path><path fill="none" stroke="var(--t2)" stroke-opacity="0.5" stroke-width="1.6" stroke-linecap="round" d="M0,15C0,46 0,46 0,77"></path><path fill="none" stroke="var(--t2)" stroke-opacity="0.5" stroke-width="1.6" stroke-linecap="round" d="M0,15C0,46 300,46 300,77"></path><path fill="none" stroke="var(--t2)" stroke-opacity="0.5" stroke-width="1.6" stroke-linecap="round" d="M0,115C0,144 0,144 0,173"></path></g><g><g transform="translate(0,0)" style="cursor: grab; -webkit-tap-highlight-color: rgba(0, 0, 0, 0);"><rect x="-39.5" y="-15" width="79" height="30" rx="9" fill="var(--bg3)" stroke="var(--bdr2)" stroke-width="1.4"></rect><text text-anchor="middle" dy="0.35em" fill="var(--t0)" style="font-size: 12px; font-weight: 600;">Goals</text></g><g transform="translate(-300,96)" style="cursor: pointer; -webkit-tap-highlight-color: rgba(0, 0, 0, 0);"><rect x="-130" y="-19" width="260" height="38" rx="8" fill="rgba(139,132,255,0.2)" stroke="#8b84ff" stroke-width="1.8"></rect><rect x="-130" y="-19" width="4" height="38" rx="1" fill="#8b84ff" opacity="0.95"></rect><text text-anchor="middle" dy="0.35em" fill="var(--t0)" style="font-size: 11px; font-weight: 700;">Parsedate Breaks Case  ·  3</text><title>Parsedate Breaks Case
keywords: parsedate, breaks, case, dst

Drag to move · click to see this goal’s full requests.</title></g><g transform="translate(0,96)" style="cursor: pointer; -webkit-tap-highlight-color: rgba(0, 0, 0, 0);"><rect x="-116.89999999999999" y="-19" width="233.79999999999998" height="38" rx="8" fill="rgba(94,234,212,0.2)" stroke="#5eead4" stroke-width="1.8"></rect><rect x="-116.89999999999999" y="-19" width="4" height="38" rx="1" fill="#5eead4" opacity="0.95"></rect><text text-anchor="middle" dy="0.35em" fill="var(--t0)" style="font-size: 11px; font-weight: 700;">Login Page Button  ·  3</text><title>Login Page Button
keywords: login, page, button, dashboard

Drag to move · click to see this goal’s full requests.</title></g><g transform="translate(300,96)" style="cursor: pointer; -webkit-tap-highlight-color: rgba(0, 0, 0, 0);"><rect x="-116.89999999999999" y="-19" width="233.79999999999998" height="38" rx="8" fill="rgba(251,113,133,0.2)" stroke="#fb7185" stroke-width="1.8"></rect><rect x="-116.89999999999999" y="-19" width="4" height="38" rx="1" fill="#fb7185" opacity="0.95"></rect><text text-anchor="middle" dy="0.35em" fill="var(--t0)" style="font-size: 11px; font-weight: 700;">App Deploying One  ·  1</text><title>App Deploying One
keywords: app, deploying, one, question

Drag to move · click to see this goal’s full requests.</title></g><g transform="translate(0,192)" style="cursor: pointer; -webkit-tap-highlight-color: rgba(0, 0, 0, 0);"><rect x="-130" y="-19" width="260" height="38" rx="8" fill="rgba(252,211,77,0.2)" stroke="#fcd34d" stroke-width="1.8"></rect><rect x="-130" y="-19" width="4" height="38" rx="1" fill="#fcd34d" opacity="0.95"></rect><text text-anchor="middle" dy="0.35em" fill="var(--t0)" style="font-size: 11px; font-weight: 700;">Dashboard Query Cache  ·  3</text><title>Dashboard Query Cache
keywords: dashboard, query, cache, database

Drag to move · click to see this goal’s full requests.</title></g></g></g></svg>